<svg xmlns="http://www.w3.org/2000/svg" width="512" height="512" viewBox="0 0 512 512"><rect width="512" height="512" rx="112" fill="#fff9ef"/><circle cx="256" cy="256" r="187" fill="#53c7a0"/><path d="M139 205 168 120l64 53c16-5 32-5 48 0l64-53 29 85c21 32 32 72 21 115-16 69-72 112-138 112s-122-43-138-112c-11-43 0-83 21-115Z" fill="#fff"/><path d="M181 245c19-19 40-19 59 0M272 245c19-19 40-19 59 0" fill="none" stroke="#2d2a28" stroke-width="19" stroke-linecap="round"/><path d="m256 277-19 19h38Z" fill="#ef8ea9"/><path d="M256 304c-5 21-21 32-43 32m43-32c5 21 21 32 43 32" fill="none" stroke="#2d2a28" stroke-width="13" stroke-linecap="round"/><path d="M173 299 107 283m69 45-67 8m231-37 67-16m-69 45 67 8" stroke="#2d2a28" stroke-width="11" stroke-linecap="round"/></svg>
