<svg xmlns="http://www.w3.org/2000/svg" width="192" height="192" viewBox="0 0 192 192"><rect width="192" height="192" rx="42" fill="#fff9ef"/><circle cx="96" cy="96" r="70" fill="#53c7a0"/><path d="M52 77 63 45l24 20c6-2 12-2 18 0l24-20 11 32c8 12 12 27 8 43-6 26-27 42-52 42s-46-16-52-42c-4-16 0-31 8-43Z" fill="#fff"/><path d="M68 92c7-7 15-7 22 0M102 92c7-7 15-7 22 0" fill="none" stroke="#2d2a28" stroke-width="7" stroke-linecap="round"/><path d="m96 104-7 7h14Z" fill="#ef8ea9"/><path d="M96 114c-2 8-8 12-16 12m16-12c2 8 8 12 16 12" fill="none" stroke="#2d2a28" stroke-width="5" stroke-linecap="round"/><path d="M65 112 40 106m26 17-25 3m86-14 25-6m-26 17 25 3" stroke="#2d2a28" stroke-width="4" stroke-linecap="round"/></svg>