<svg xmlns="http://www.w3.org/2000/svg" viewBox="0 0 240 220" role="img" aria-label="Meowde enjoying music"><defs><linearGradient id="f" x1="0" y1="0" x2="1" y2="1"><stop stop-color="#FFFDF7"/><stop offset="1" stop-color="#F0D8BC"/></linearGradient></defs><g stroke="#473934" stroke-width="4" stroke-linecap="round" stroke-linejoin="round"><ellipse cx="120" cy="157" rx="49" ry="44" fill="url(#f)"/><path d="M78 75 89 31l30 30M162 75l-11-44-30 30" fill="url(#f)"/><ellipse cx="120" cy="91" rx="63" ry="56" fill="url(#f)"/><path d="M66 89c0-39 24-68 54-68s54 29 54 68" fill="none" stroke="#8D76E8" stroke-width="9"/><rect x="58" y="76" width="18" height="42" rx="9" fill="#A890F5"/><rect x="164" y="76" width="18" height="42" rx="9" fill="#A890F5"/><path d="M91 87q9 9 18 0M131 87q9 9 18 0" fill="none"/><path d="m115 105 5-4 5 4-5 5z" fill="#70584F" stroke-width="2"/><path d="M120 111c-3 8-11 10-16 4M120 111c3 8 11 10 16 4" fill="none" stroke-width="3"/><ellipse cx="80" cy="105" rx="10" ry="6" fill="#F5B3AF" opacity=".5" stroke="none"/><ellipse cx="160" cy="105" rx="10" ry="6" fill="#F5B3AF" opacity=".5" stroke="none"/><path d="M78 156c-17 4-26 16-24 32M162 156c17 4 26 16 24 32" fill="none"/><path d="M103 194c10 6 24 6 34 0" fill="none"/><path d="M32 54v27c0 8-14 10-14 1 0-7 9-10 14-7M202 38v31c0 9-15 11-15 1 0-8 10-11 15-8l18-5V31z" fill="#FFD76A"/></g></svg>